<?xml version="1.0" encoding="UTF-8" standalone="no"?>
<svg width="150px" height="128px" viewBox="0 0 150 128" version="1.1" xmlns="http://www.w3.org/2000/svg" xmlns:xlink="http://www.w3.org/1999/xlink">
    <!-- Generator: Sketch 50.2 (55047) - http://www.bohemiancoding.com/sketch -->
    <title>Gains</title>
    <desc>Created with Sketch.</desc>
    <defs></defs>
    <g id="Design" stroke="none" stroke-width="1" fill="none" fill-rule="evenodd">
        <g id="Gains" fill="#FFFFFF">
            <path d="M69.7936991,89.8954704 L61.821802,89.8954704 L61.821802,62.2353256 L34.3454458,62.2353256 L34.3454458,89.8954704 L6.86908948,89.8954704 L6.86908948,48.4052533 C3.07485656,48.4052533 4.29318072e-08,45.3092745 0,41.4902171 L48.0836235,0 L68.6908911,17.7815218 L68.6908911,6.91503618 L82.4290692,6.91503618 L82.4290692,29.6358695 L96.1672474,41.4902171 C96.1672474,45.3092861 93.0900028,48.4052533 89.2993632,48.4052533 L89.2988951,64.5249806 C87.0695961,65.2409984 85.2325277,66.1220525 83.9685019,67.1681428 C81.6661774,73.3383724 79.4559459,79.508602 77.1536215,85.6788316 C75.7722268,85.6788316 74.3908321,85.6788316 73.1015304,85.6788316 C71.801169,86.0949472 70.3832957,88.0093388 69.7936991,89.8954705 Z" id="Combined-Shape"></path>
            <path d="M77.4047178,100.296433 L78.2335546,97.2573643 C76.85216,97.2573643 75.3786723,97.1652714 73.9972776,97.1652714 C71.7870461,95.5075977 74.4577425,90.074112 76.760067,89.3373682 C78.0493687,89.3373682 79.4307634,89.3373682 80.812158,89.3373682 C83.1144825,83.1671386 85.324714,76.996909 87.6270385,70.8266794 C95.6391276,64.1959849 126.674462,64.1959849 134.686551,70.8266794 C136.988875,76.996909 139.199107,83.1671386 141.501431,89.3373682 C142.882826,89.3373682 144.172128,89.3373682 145.553522,89.3373682 C147.855847,90.074112 150.526543,95.5075977 148.316312,97.1652714 C146.934917,97.1652714 145.461429,97.2573643 144.080035,97.2573643 L144.908871,100.296433 C145.000964,108.400615 144.908871,116.59689 144.908871,124.608979 C144.908871,126.266653 143.527477,127.648047 141.961896,127.648047 L131.923761,127.648047 C130.358181,127.648047 128.976786,126.266653 128.976786,124.608979 L128.976786,120.92526 C117.096792,120.92526 105.216797,120.92526 93.3368032,120.92526 L93.3368032,124.608979 C93.3368032,126.266653 91.9554085,127.648047 90.3898278,127.648047 L80.3516931,127.648047 C78.7861125,127.648047 77.4047178,126.266653 77.4047178,124.608979 C77.4047178,116.59689 77.3126248,108.400615 77.4047178,100.296433 Z M91.0344787,76.0759792 C89.4688981,80.7727211 88.0875034,85.3773701 86.5219227,90.074112 L135.791666,90.074112 C134.226086,85.3773701 132.844691,80.7727211 131.27911,76.0759792 C127.963763,69.6294707 94.3498259,69.6294707 91.0344787,76.0759792 Z M140.580501,106.190383 C140.488408,104.440617 140.580501,103.335501 140.488408,101.585734 C140.027943,99.9280607 138.001898,99.5596888 135.791666,100.020154 C132.568412,101.033176 128.884693,102.506664 125.38516,104.256431 C123.911672,105.453639 123.635393,107.01922 125.38516,108.308522 C132.476319,109.413638 138.922828,108.953173 140.580501,106.190383 Z M81.7330878,106.190383 C81.8251808,104.440617 81.7330878,103.335501 81.8251808,101.585734 C82.2856457,99.9280607 84.3116912,99.5596888 86.5219227,100.020154 C89.745177,101.033176 93.4288962,102.506664 96.9284293,104.256431 C98.401917,105.453639 98.6781959,107.01922 96.9284293,108.308522 C89.83727,109.413638 83.3907615,108.953173 81.7330878,106.190383 Z" id="Shape"></path>
        </g>
    </g>
</svg>