<?xml version="1.0" encoding="UTF-8" standalone="no"?>
<svg width="240px" height="208px" viewBox="0 0 60 52" version="1.1" xmlns="http://www.w3.org/2000/svg" xmlns:xlink="http://www.w3.org/1999/xlink">
    <!-- Generator: Sketch 50.2 (55047) - http://www.bohemiancoding.com/sketch -->
    <title>ic_draganddrop2</title>
    <desc>Created with Sketch.</desc>
    <defs></defs>
    <g id="Design" stroke="none" stroke-width="1" fill="none" fill-rule="evenodd">
        <g id="ic_draganddrop2" fill="#337BAE" fill-rule="nonzero">
            <g id="Group-29">
                <g id="Drag-and-drop-2">
                    <rect id="Rectangle-path" x="31.5250737" y="42.4103491" width="2.10268421" height="2.92556727"></rect>
                    <polygon id="Shape" points="31.5252632 49.3109697 30.4736842 49.3109697 30.4736842 51.4090909 33.6276316 51.4090909 33.6276316 48.2615152 31.5252632 48.2615152"></polygon>
                    <rect id="Rectangle-path" x="22.8032447" y="49.3107018" width="3.83524737" height="2.09843636"></rect>
                    <rect id="Rectangle-path" x="7.46277632" y="49.3107018" width="3.83524737" height="2.09843636"></rect>
                    <rect id="Rectangle-path" x="15.1330105" y="49.3107018" width="3.83524737" height="2.09843636"></rect>
                    <polygon id="Shape" points="2.57605263 48.2615152 0.473684211 48.2615152 0.473684211 51.4090909 3.62763158 51.4090909 3.62763158 49.3109697 2.57605263 49.3109697"></polygon>
                    <rect id="Rectangle-path" x="0.473763158" y="25.2970152" width="2.10268421" height="3.82749939"></rect>
                    <rect id="Rectangle-path" x="0.473763158" y="32.9517539" width="2.10268421" height="3.82749939"></rect>
                    <rect id="Rectangle-path" x="0.473763158" y="40.6064848" width="2.10268421" height="3.82749939"></rect>
                    <polygon id="Shape" points="0.473684211 21.469697 2.57605263 21.469697 2.57605263 20.4202424 3.62763158 20.4202424 3.62763158 18.3221212 0.473684211 18.3221212"></polygon>
                    <rect id="Rectangle-path" x="7.17787105" y="18.3218612" width="3.55008158" height="2.09843636"></rect>
                    <path d="M59.1911921,31.7100333 C59.1015811,31.3478884 58.8282391,31.0591656 58.4710263,30.9493442 L47.2900184,27.6128352 L47.2900184,9.54528545 C47.290831,9.26706732 47.1789807,9.00032189 46.9798579,8.80560121 L38.7741395,0.611204848 C38.5790159,0.412477991 38.3117182,0.300853267 38.0329263,0.301670909 L16.3805211,0.301670909 C15.8005899,0.303375687 15.3308872,0.772129503 15.3291789,1.35088909 L15.3291789,18.3219873 L14.2778368,18.3219873 L14.2778368,20.4204236 L15.3292105,20.4204236 L15.3292105,38.4355242 L31.5251368,38.4355242 L31.5251368,39.4847424 L33.6278211,39.4847424 L33.6278211,38.4355242 L41.1186395,38.4355242 L43.4105605,45.4600545 C43.5255182,45.8023264 43.8065731,46.0630533 44.1570079,46.1525133 C44.2394986,46.1733073 44.3242423,46.1838789 44.4093237,46.1839891 C44.6815322,46.1827307 44.9429521,46.0776259 45.1400132,45.8902127 L49.5556658,41.6566406 L53.5192184,45.6121861 C53.9303556,46.0213638 54.5957418,46.0213638 55.0068789,45.6121861 L58.3711579,42.2546721 C58.5695882,42.0573302 58.6811832,41.7893029 58.6813184,41.5097327 C58.682131,41.2315146 58.5702807,40.9647692 58.3711579,40.7700485 L54.5127474,36.9141697 L58.8968289,32.7120418 C59.1667426,32.4541823 59.2788652,32.0725182 59.1911921,31.7100333 Z M38.9370947,3.73785455 L43.8416211,8.63772 L38.9370947,8.63772 L38.9370947,3.73785455 Z M45.1873579,26.9832964 L38.4587368,24.9740636 C38.0839275,24.8630559 37.6783505,24.9687565 37.4057857,25.2484814 C37.1332209,25.5282063 37.0386816,25.9357597 37.1603447,26.3065636 L40.4352632,36.3370879 L17.4318632,36.3370879 L17.4318632,2.40010727 L36.8344105,2.40010727 L36.8344105,9.6869697 C36.8361188,10.2657293 37.3058215,10.7344831 37.8857526,10.7361879 L45.1873342,10.7361879 L45.1873342,26.9832727 L45.1873579,26.9832964 Z" id="Shape"></path>
                    <path d="M41.1606711,14.1461194 C41.1609565,14.3549101 41.0779732,14.5552312 40.9300369,14.7028687 C40.7821005,14.8505062 40.5813739,14.9333219 40.3721605,14.933037 L21.84225,14.933037 C21.4077439,14.9316649 21.0562345,14.5797538 21.0562345,14.1461233 C21.0562345,13.7124928 21.4077439,13.3605818 21.84225,13.3592097 L40.3721684,13.3592097 C40.5813791,13.3589269 40.7821025,13.4417424 40.9300369,13.589378 C41.0779713,13.7370135 41.1609544,13.9373314 41.1606711,14.1461194 Z" id="Shape"></path>
                    <path d="M41.1606711,17.9547885 C41.1609502,18.1635773 41.0779649,18.3638947 40.9300299,18.5115309 C40.7820949,18.659167 40.581372,18.7419846 40.3721605,18.7417061 L21.84225,18.7417061 C21.5599494,18.7425975 21.2987099,18.5928079 21.1573011,18.3489698 C21.0158923,18.1051317 21.0158923,17.8044532 21.1573011,17.5606151 C21.2987099,17.316777 21.5599494,17.1669873 21.84225,17.1678788 L40.3721684,17.1678788 C40.5813791,17.167596 40.7821025,17.2504115 40.9300369,17.398047 C41.0779713,17.5456826 41.1609544,17.7460005 41.1606711,17.9547885 Z" id="Shape"></path>
                    <path d="M41.1606711,21.7686733 C41.1609565,21.9774641 41.0779732,22.1777852 40.9300369,22.3254227 C40.7821005,22.4730601 40.5813739,22.5558758 40.3721605,22.5555909 L21.84225,22.5555909 C21.4077439,22.5542188 21.0562345,22.2023078 21.0562345,21.7686773 C21.0562345,21.3350468 21.4077439,20.9831357 21.84225,20.9817636 L40.3721684,20.9817636 C40.5813771,20.9814872 40.7820969,21.0643047 40.9300299,21.2119389 C41.0779629,21.359573 41.1609481,21.5598873 41.1606711,21.7686733 Z" id="Shape"></path>
                </g>
            </g>
        </g>
    </g>
</svg>