<?xml version="1.0" encoding="UTF-8" standalone="no"?>
<svg width="134px" height="134px" viewBox="0 0 134 134" version="1.1" xmlns="http://www.w3.org/2000/svg" xmlns:xlink="http://www.w3.org/1999/xlink">
    <!-- Generator: Sketch 50.2 (55047) - http://www.bohemiancoding.com/sketch -->
    <title>Flag</title>
    <desc>Created with Sketch.</desc>
    <defs></defs>
    <g id="Design" stroke="none" stroke-width="1" fill="none" fill-rule="evenodd">
        <g id="Flag" fill="#FFFFFF" fill-rule="nonzero">
            <path d="M109.710267,26.8 L132.392,7.89706667 C133.830267,6.69106667 134.3752,4.7168 133.723067,2.93906667 C133.0888,1.1792 131.418267,0 129.533333,0 L58.0666667,0 C55.6010667,0 53.6,2.00106667 53.6,4.46666667 L53.6,111.666667 C53.6,114.132267 55.6010667,116.133333 58.0666667,116.133333 C60.5322667,116.133333 62.5333333,114.132267 62.5333333,111.666667 L62.5333333,53.6 L129.533333,53.6 C131.418267,53.6 133.0888,52.4208 133.732,50.652 C134.3752,48.8832 133.8392,46.9 132.400933,45.694 L109.710267,26.8 Z" id="Shape"></path>
            <path d="M71.4666667,89.9586667 L71.4666667,98.9813333 C93.7732,101.1968 106.699733,108.397067 107.2,111.6488 C106.6104,115.543733 88.6633333,125.066667 58.0666667,125.066667 C27.4789333,125.066667 9.52293333,115.543733 8.93333333,111.684533 C9.4336,108.406 22.3601333,101.1968 44.6666667,98.9813333 L44.6666667,89.9586667 C19.0726667,92.2902667 0,101.1164 0,111.666667 C0,124.0036 25.996,134 58.0666667,134 C90.1373333,134 116.133333,124.0036 116.133333,111.666667 C116.133333,101.107467 97.0606667,92.2813333 71.4666667,89.9586667 Z" id="Shape"></path>
        </g>
    </g>
</svg>