<?xml version="1.0" encoding="UTF-8" standalone="no"?>
<svg width="132px" height="129px" viewBox="0 0 132 129" version="1.1" xmlns="http://www.w3.org/2000/svg" xmlns:xlink="http://www.w3.org/1999/xlink">
    <!-- Generator: Sketch 50.2 (55047) - http://www.bohemiancoding.com/sketch -->
    <title>Launch</title>
    <desc>Created with Sketch.</desc>
    <defs></defs>
    <g id="Design" stroke="none" stroke-width="1" fill="none" fill-rule="evenodd">
        <path d="M128.953738,2.58609025 C119.232548,-7.13509977 77.4984739,12.1396735 52.0222517,33.9285477 C39.7869608,29.0679527 24.0319287,33.0905141 12.1318513,44.4877714 C8.93312068,47.3273771 6.2161358,50.6670044 4.08672852,54.3765681 C2.94372163,56.3483021 3.26982558,58.8422428 4.88137758,60.4537948 C6.49292958,62.0653468 8.98687023,62.3914507 10.9586042,61.2484438 C16.6343868,57.8123591 23.3878096,56.617063 29.8981641,57.8963093 C25.6200148,63.6116159 22.2296417,69.9403123 19.8417606,76.6682625 C19.3263485,78.19693 19.5757029,79.8800723 20.5121875,81.193644 C19.4360559,81.8807001 18.4260763,82.6662398 17.4952665,83.5401382 C10.2881773,90.7472273 1.74023438,116.893876 0.231773856,121.922078 C-0.252119771,123.460304 0.0310934005,125.137285 0.993301453,126.431289 C1.95550951,127.725293 3.47995837,128.479305 5.09236887,128.45874 L6.43322266,128.45874 C11.6290311,126.95028 37.9432869,119.407977 45.4855895,112.536102 L45.6531962,112.536102 C46.7082976,111.452184 47.6620422,110.274029 48.5025105,109.01636 L50.010971,109.351574 L51.5194316,109.351574 C58.434246,107.139174 64.9853803,103.920082 70.9618116,99.7979905 C72.6378788,105.831833 71.297025,113.038922 67.2744637,119.743191 C66.1314568,121.714925 66.4575607,124.208865 68.0691127,125.820417 C69.6806647,127.431969 72.1746054,127.758073 74.1463394,126.615066 C77.687654,124.580975 80.9545108,122.10267 83.8675294,119.240371 C95.9352135,107.5079 100.460595,91.2500475 95.4323934,78.5119364 C113.366313,58.5667362 131.803053,28.0623124 131.970659,11.3016399 C132.196951,8.10642646 131.106979,4.95761943 128.953738,2.58609025 Z M38.446107,105.161406 C34.9263658,108.178327 23.1938951,112.703708 12.8022782,116.055843 C16.4896261,105.831833 21.3502211,94.0993618 24.5347489,90.9148341 C25.4122064,90.0258003 26.431845,89.2893946 27.55167,88.7359466 L40.7926012,101.976878 C40.1604994,103.141177 39.3709014,104.212775 38.446107,105.161406 Z M92.7506858,58.5667362 C88.3426574,62.9820618 81.7083186,64.3059923 75.943196,61.9207929 C70.1780735,59.5355935 66.418395,53.9113547 66.418395,47.6722991 C66.418395,41.4332436 70.1780735,35.8090048 75.943196,33.4238054 C81.7083186,31.038606 88.3426574,32.3625365 92.7506858,36.777862 C98.7604812,42.7976062 98.7604812,52.546992 92.7506858,58.5667362 Z" id="Launch" fill="#FFFFFF" fill-rule="nonzero"></path>
    </g>
</svg>