<?xml version="1.0" encoding="UTF-8" standalone="no"?>
<svg width="130px" height="130px" viewBox="0 0 130 130" version="1.1" xmlns="http://www.w3.org/2000/svg" xmlns:xlink="http://www.w3.org/1999/xlink">
    <!-- Generator: Sketch 50.2 (55047) - http://www.bohemiancoding.com/sketch -->
    <title>office</title>
    <desc>Created with Sketch.</desc>
    <defs></defs>
    <g id="Design" stroke="none" stroke-width="1" fill="none" fill-rule="evenodd">
        <g id="office" transform="translate(0.000000, -1.000000)" fill="#FFFFFF" fill-rule="nonzero">
            <path d="M62.2,14.4 L62.2,2 C62.2,1.4 61.8,1 61.2,1 C60.6,1 60.2,1.4 60.2,2 L60.2,14.4 C56.2,14.8 52.9,17.9 52.2,21.8 L70.2,21.8 C69.4,17.9 66.2,14.9 62.2,14.4 Z" id="Shape"></path>
            <path d="M95.3,45.6 L118,45.6 L118,31.6 C118,31 117.6,30.6 117,30.6 L82.7,30.6 L82.7,37.6 L92.3,37.6 C94,37.6 95.3,38.9 95.3,40.6 L95.3,45.6 Z" id="Shape"></path>
            <path d="M80.7,24.9 C80.7,24.3 80.3,23.9 79.7,23.9 L42.6,23.9 C42.1,23.9 41.6,24.3 41.6,24.9 L41.6,37.6 L80.7,37.6 L80.7,24.9 Z" id="Shape"></path>
            <path d="M129,47.6 L95.3,47.6 L95.3,130 C95.3,130.4 95.2,130.7 95.1,131 L129,131 C129.6,131 130,130.6 130,130 L130,48.6 C130,48.1 129.6,47.6 129,47.6 Z M109.7,124 C109.7,124.6 109.2,125 108.7,125 L100.3,125 C99.8,125 99.3,124.6 99.3,124 L99.3,115.6 C99.3,115 99.8,114.6 100.3,114.6 L108.7,114.6 C109.2,114.6 109.7,115 109.7,115.6 L109.7,124 Z M109.7,108.8 C109.7,109.4 109.2,109.8 108.7,109.8 L100.3,109.8 C99.8,109.8 99.3,109.4 99.3,108.8 L99.3,100.4 C99.3,99.8 99.8,99.4 100.3,99.4 L108.7,99.4 C109.2,99.4 109.7,99.8 109.7,100.4 L109.7,108.8 Z M109.7,93.5 C109.7,94.1 109.2,94.5 108.7,94.5 L100.3,94.5 C99.8,94.5 99.3,94.1 99.3,93.5 L99.3,85.1 C99.3,84.5 99.8,84.1 100.3,84.1 L108.7,84.1 C109.2,84.1 109.7,84.5 109.7,85.1 L109.7,93.5 Z M109.7,78.3 C109.7,78.9 109.2,79.3 108.7,79.3 L100.3,79.3 C99.8,79.3 99.3,78.9 99.3,78.3 L99.3,69.9 C99.3,69.3 99.8,68.9 100.3,68.9 L108.7,68.9 C109.2,68.9 109.7,69.3 109.7,69.9 L109.7,78.3 Z M109.7,63 C109.7,63.6 109.2,64 108.7,64 L100.3,64 C99.8,64 99.3,63.6 99.3,63 L99.3,54.6 C99.3,54 99.8,53.6 100.3,53.6 L108.7,53.6 C109.2,53.6 109.7,54 109.7,54.6 L109.7,63 Z M126,124 C126,124.6 125.6,125 125,125 L116.6,125 C116.1,125 115.6,124.6 115.6,124 L115.6,115.6 C115.6,115 116.1,114.6 116.6,114.6 L125,114.6 C125.6,114.6 126,115 126,115.6 L126,124 Z M126,108.8 C126,109.4 125.6,109.8 125,109.8 L116.6,109.8 C116.1,109.8 115.6,109.4 115.6,108.8 L115.6,100.4 C115.6,99.8 116.1,99.4 116.6,99.4 L125,99.4 C125.6,99.4 126,99.8 126,100.4 L126,108.8 Z M126,93.5 C126,94.1 125.6,94.5 125,94.5 L116.6,94.5 C116.1,94.5 115.6,94.1 115.6,93.5 L115.6,85.1 C115.6,84.5 116.1,84.1 116.6,84.1 L125,84.1 C125.6,84.1 126,84.5 126,85.1 L126,93.5 Z M126,78.3 C126,78.9 125.6,79.3 125,79.3 L116.6,79.3 C116.1,79.3 115.6,78.9 115.6,78.3 L115.6,69.9 C115.6,69.3 116.1,68.9 116.6,68.9 L125,68.9 C125.6,68.9 126,69.3 126,69.9 L126,78.3 Z M126,63 C126,63.6 125.6,64 125,64 L116.6,64 C116.1,64 115.6,63.6 115.6,63 L115.6,54.6 C115.6,54 116.1,53.6 116.6,53.6 L125,53.6 C125.6,53.6 126,54 126,54.6 L126,63 Z" id="Shape"></path>
            <path d="M30,37.6 L35,37.6 L35,2 C35,1.6 34.8,1.3 34.5,1.1 C34.2,0.9 33.8,1 33.5,1.2 L0.5,25.8 C0.2,26 0,26.3 0,26.6 L0,130 C0,130.6 0.5,131 1,131 L27.2,131 C27.1,130.7 27,130.4 27,130 L27,40.6 C27,39 28.3,37.6 30,37.6 Z" id="Shape"></path>
            <path d="M92.3,39.6 L30,39.6 C29.5,39.6 29,40 29,40.6 L29,130 C29,130.6 29.5,131 30,131 L92.3,131 C92.8,131 93.3,130.6 93.3,130 L93.3,40.6 C93.3,40.1 92.9,39.6 92.3,39.6 Z M84.7,121.7 L37.7,121.7 C37.1,121.7 36.7,121.3 36.7,120.7 C36.7,120.1 37.1,119.7 37.7,119.7 L84.7,119.7 C85.3,119.7 85.7,120.1 85.7,120.7 C85.7,121.3 85.2,121.7 84.7,121.7 Z M84.7,109.9 L37.7,109.9 C37.1,109.9 36.7,109.5 36.7,108.9 C36.7,108.3 37.1,107.9 37.7,107.9 L84.7,107.9 C85.3,107.9 85.7,108.3 85.7,108.9 C85.7,109.5 85.2,109.9 84.7,109.9 Z M84.7,98.1 L37.7,98.1 C37.1,98.1 36.7,97.7 36.7,97.1 C36.7,96.5 37.1,96.1 37.7,96.1 L84.7,96.1 C85.3,96.1 85.7,96.5 85.7,97.1 C85.7,97.7 85.2,98.1 84.7,98.1 Z M84.7,86.3 L37.7,86.3 C37.1,86.3 36.7,85.9 36.7,85.3 C36.7,84.7 37.1,84.3 37.7,84.3 L84.7,84.3 C85.3,84.3 85.7,84.7 85.7,85.3 C85.7,85.9 85.2,86.3 84.7,86.3 Z M84.7,74.5 L37.7,74.5 C37.1,74.5 36.7,74.1 36.7,73.5 C36.7,72.9 37.1,72.5 37.7,72.5 L84.7,72.5 C85.3,72.5 85.7,72.9 85.7,73.5 C85.7,74.1 85.2,74.5 84.7,74.5 Z M84.7,62.7 L37.7,62.7 C37.1,62.7 36.7,62.3 36.7,61.7 C36.7,61.1 37.1,60.7 37.7,60.7 L84.7,60.7 C85.3,60.7 85.7,61.1 85.7,61.7 C85.7,62.3 85.2,62.7 84.7,62.7 Z M84.7,51 L37.7,51 C37.1,51 36.7,50.6 36.7,50 C36.7,49.4 37.1,49 37.7,49 L84.7,49 C85.3,49 85.7,49.4 85.7,50 C85.7,50.6 85.2,51 84.7,51 Z" id="Shape"></path>
        </g>
    </g>
</svg>