<?xml version="1.0" encoding="UTF-8" standalone="no"?>
<svg width="20px" height="20px" viewBox="0 0 134 134" version="1.1" xmlns="http://www.w3.org/2000/svg" xmlns:xlink="http://www.w3.org/1999/xlink">
    <!-- Generator: Sketch 50.2 (55047) - http://www.bohemiancoding.com/sketch -->
    <title>Coin2b</title>
    <desc>Created with Sketch.</desc>
    <defs></defs>
    <g id="Design" stroke="none" stroke-width="1" fill="none" fill-rule="evenodd">
        <g id="Coin2b" transform="translate(7.000000, 7.000000)">
            <g id="Group" stroke="#696F70" stroke-linecap="round" stroke-linejoin="round">
                <circle id="Oval" stroke-width="13.3333333" cx="60" cy="60" r="60"></circle>
                <circle id="Oval" stroke-width="6.66666667" cx="60.0281763" cy="60.0281763" r="40.0281763"></circle>
            </g>
            <path d="M67.9149431,43.3203852 C67.6472527,42.8080419 67.6925003,42.1883457 68.0317732,41.7203204 L72.3951245,35.6553129 C72.6798543,35.2448464 73.1476851,35 73.6472387,35 C74.1467923,35 74.6146232,35.2448464 74.8993529,35.6553129 L79.2474655,41.7203204 C79.5960411,42.1886672 79.646392,42.8150005 79.37711,43.3330169 C79.107828,43.8510332 78.5662535,44.1696642 77.9826524,44.1534348 L77.1292845,44.1534348 L77.1292845,59.9001042 C77.1292845,60.8146546 76.3878949,61.5560442 75.4733444,61.5560442 L71.7957352,61.5560442 C70.8811847,61.5560442 70.1397951,60.8146546 70.1397951,59.9001042 L70.1397951,44.1534348 L69.2864272,44.1534348 C68.7082453,44.1584304 68.1770405,43.8357727 67.9149431,43.3203852 Z M50.8069488,82.0521123 L66.5536182,82.0521123 C68.8329663,82.0465974 70.9991118,81.0579464 72.496716,79.3396215 L82.5542661,67.6108926 C83.7675883,66.2334562 83.6345475,64.1332313 82.2571111,62.919909 C80.8796747,61.7065868 78.7794499,61.8396275 77.5661276,63.2170639 L69.5200875,72.4364848 C68.8043106,73.2416113 67.7782208,73.7019651 66.7009257,73.7012979 L59.1882405,73.7012979 C58.6317353,73.6627344 58.2000008,73.2000472 58.2000008,72.6422074 C58.2000008,72.0843677 58.6317353,71.6216804 59.1882405,71.5831169 L65.7916825,71.5831169 C67.560468,71.5831169 68.9943519,70.149233 68.9943519,68.3804476 C68.9943519,66.6116621 67.560468,65.1777782 65.7916825,65.1777782 L57.2884811,65.1777782 C52.3547684,63.1981143 46.7167588,64.3332974 42.9336141,68.068054 L36,74.9000766 L48.0639806,84.7900009 L50.8069488,82.0521123 Z M52.9708459,61.5865217 L56.6484552,61.5865217 C57.5630056,61.5865217 58.3043952,60.845132 58.3043952,59.9305816 L58.3043952,55.0846711 C58.3043952,54.1701206 57.5630056,53.428731 56.6484552,53.428731 L52.9708459,53.428731 C52.0562955,53.428731 51.3149059,54.1701206 51.3149059,55.0846711 L51.3149059,59.925502 C51.313556,60.3655641 51.4874245,60.788065 51.7981199,61.0997135 C52.1088153,61.411362 52.5307818,61.5865237 52.9708459,61.5865217 Z M62.3832906,61.5865217 L66.0608998,61.5865217 C66.5000824,61.5865217 66.9212772,61.412057 67.2318262,61.101508 C67.5423752,60.790959 67.7168399,60.3697642 67.7168399,59.9305816 L67.7168399,49.6546099 C67.7168399,48.7400595 66.9754502,47.9986699 66.0608998,47.9986699 L62.3832906,47.9986699 C61.9414736,47.9946039 61.5163533,48.1672719 61.2025006,48.4782627 C60.888648,48.7892535 60.7120931,49.2127742 60.7121118,49.6546099 L60.7121118,59.9305816 C60.7120931,60.3724173 60.888648,60.7959381 61.2025006,61.1069288 C61.5163533,61.4179196 61.9414736,61.5905876 62.3832906,61.5865217 Z" id="Shape" fill="#696F70" fill-rule="nonzero"></path>
        </g>
    </g>
</svg>