<?xml version="1.0" encoding="UTF-8" standalone="no"?>
<svg width="50px" height="46px" viewBox="0 0 50 46" version="1.1" xmlns="http://www.w3.org/2000/svg" xmlns:xlink="http://www.w3.org/1999/xlink">
    <!-- Generator: Sketch 50.2 (55047) - http://www.bohemiancoding.com/sketch -->
    <title>ic_achat</title>
    <desc>Created with Sketch.</desc>
    <defs></defs>
    <g id="Design" stroke="none" stroke-width="1" fill="none" fill-rule="evenodd" opacity="0.2">
        <g id="ic_achat" fill="#FFFFFF" fill-rule="nonzero">
            <path d="M0.0911111111,36.7654303 C-0.287222222,38.1883636 0.553333333,39.652 1.97277778,40.0356121 L10.7283333,42.3891394 L4.65833333,19.6573333 L0.0911111111,36.7654303 Z" id="Shape"></path>
            <path d="M14.7438889,43.6804848 C15.1261111,45.1039758 16.5833333,45.9492606 18.0016667,45.5689939 L27.7844444,42.9366788 L9.70055556,24.7892606 L14.7438889,43.6804848 Z" id="Shape"></path>
            <path d="M49.2205556,21.6657212 L28.4627778,0.831345455 C27.9727778,0.339563636 27.3083333,0.0635636364 26.6155556,0.0630060606 L12.4372222,0.0613333333 C10.4783333,0.0613333333 8.88888889,1.656 8.88888889,3.6225697 L8.88833333,17.8546909 C8.88833333,18.5499879 9.16333333,19.2174061 9.65333333,19.7091879 L30.4122222,40.5430061 C30.9322222,41.064897 31.6127778,41.3252848 32.2933333,41.3252848 C32.9738889,41.3252848 33.6544444,41.0643394 34.1744444,40.5430061 L49.2205556,25.4399515 C50.2588889,24.3972848 50.2588889,22.7078303 49.2205556,21.6657212 Z M16.5738889,9.91146667 C15.04,9.91146667 13.7961111,8.66305455 13.7961111,7.12358788 C13.7961111,5.58412121 15.04,4.33570909 16.5738889,4.33570909 C18.1077778,4.33570909 19.3516667,5.58412121 19.3516667,7.12358788 C19.3516667,8.66361212 18.1077778,9.91146667 16.5738889,9.91146667 Z" id="Shape"></path>
        </g>
    </g>
</svg>