<?xml version="1.0" encoding="UTF-8" standalone="no"?>
<svg width="20px" height="20px" viewBox="0 0 20 20" version="1.1" xmlns="http://www.w3.org/2000/svg" xmlns:xlink="http://www.w3.org/1999/xlink">
    <!-- Generator: Sketch 50.2 (55047) - http://www.bohemiancoding.com/sketch -->
    <title>ic_coin</title>
    <desc>Created with Sketch.</desc>
    <defs></defs>
    <g id="Design" stroke="none" stroke-width="1" fill="none" fill-rule="evenodd">
        <g id="ic_coin" transform="translate(1.000000, 1.000000)">
            <g id="Oval" stroke="#696F70" stroke-linecap="round" stroke-linejoin="round">
                <circle stroke-width="2" cx="9" cy="9" r="9"></circle>
                <circle cx="9.00422644" cy="9.00422644" r="6.00422644"></circle>
            </g>
            <path d="M9.7313335,6 C10.6935511,6 11.3571759,6.42264032 11.9169473,6.98242238 C12.0526461,7.11147516 12.0541562,7.35151296 11.9224577,7.4846632 C11.7907681,7.61781344 11.5507586,7.61894378 11.4202081,7.4846632 C10.9202968,6.98475371 10.5014997,6.70646104 9.7313335,6.70646104 C8.77135008,6.70646104 7.95239042,7.28870857 7.60643115,8.11938312 L9.90242953,8.11938312 C10.0890465,8.11673389 10.2611793,8.28596664 10.2611793,8.47261364 C10.2611793,8.65924299 10.0890465,8.82847573 9.90242953,8.82584416 L7.43533512,8.82584416 C7.43106103,8.88380929 7.42982472,8.94332863 7.42982472,9.00245942 C7.42982472,9.12266377 7.43973284,9.24057212 7.45742086,9.35568994 L9.90242953,9.35568994 C10.0890465,9.35304071 10.2611793,9.52229112 10.2611793,9.70892046 C10.2611793,9.89554981 10.0890465,10.0647826 9.90242953,10.062151 L7.68921955,10.062151 C8.07199427,10.7980891 8.84046493,11.2984578 9.7313335,11.2984578 C10.5014944,11.2984578 10.9202933,11.0146547 11.4202169,10.5147276 C11.5507674,10.380447 11.7907769,10.3815773 11.9224666,10.5147276 C12.0541615,10.6478778 12.0526514,10.8879156 11.9169562,11.0169684 C11.3571882,11.5767505 10.6935652,12.0049188 9.73134233,12.0049188 C8.44957827,12.0049188 7.35344392,11.1948376 6.92205585,10.062151 L6.37012433,10.062151 C6.18515163,10.0708051 6.00900794,9.91045614 6.00033613,9.72546931 C5.99166432,9.54050015 6.15203274,9.36432643 6.33700897,9.35568994 C6.46879574,9.35568994 6.61093394,9.35567228 6.74543176,9.35568994 C6.73183238,9.24030719 6.72335485,9.12139214 6.72335485,9.00245942 C6.72335485,8.9433463 6.73098463,8.88410954 6.7343933,8.82584416 L6.37012433,8.82584416 C6.18515163,8.83449831 6.00900794,8.67413165 6.00033613,8.48916249 C5.99166432,8.30419333 6.15203274,8.12801961 6.33700897,8.11938312 C6.5054805,8.11938312 6.68460016,8.11936546 6.85581629,8.11938312 C7.23438757,6.89252522 8.38210241,6 9.7313335,6 Z" id="Path" fill="#696F70"></path>
        </g>
    </g>
</svg>