<?xml version="1.0" encoding="UTF-8" standalone="no"?>
<svg width="18px" height="18px" viewBox="0 0 18 18" version="1.1" xmlns="http://www.w3.org/2000/svg" xmlns:xlink="http://www.w3.org/1999/xlink">
    <!-- Generator: Sketch 50.2 (55047) - http://www.bohemiancoding.com/sketch -->
    <title>ic_dashboard</title>
    <desc>Created with Sketch.</desc>
    <defs>
        <path d="M3,13 L11,13 L11,3 L3,3 L3,13 L3,13 Z M3,21 L11,21 L11,15 L3,15 L3,21 L3,21 Z M13,21 L21,21 L21,11 L13,11 L13,21 L13,21 Z M13,3 L13,9 L21,9 L21,3 L13,3 L13,3 Z" id="path-1"></path>
    </defs>
    <g id="Design" stroke="none" stroke-width="1" fill="none" fill-rule="evenodd">
        <g id="ic_dashboard" transform="translate(-3.000000, -3.000000)">
            <polygon id="Shape" points="0 0 24 0 24 24 0 24"></polygon>
            <mask id="mask-2" fill="white">
                <use xlink:href="#path-1"></use>
            </mask>
            <use id="Mask" fill="#9FA3A7" xlink:href="#path-1"></use>
        </g>
    </g>
</svg>