<?xml version="1.0" encoding="iso-8859-1"?>
<!-- Generator: Adobe Illustrator 18.0.0, SVG Export Plug-In . SVG Version: 6.00 Build 0)  -->
<!DOCTYPE svg PUBLIC "-//W3C//DTD SVG 1.1//EN" "http://www.w3.org/Graphics/SVG/1.1/DTD/svg11.dtd">
<svg xmlns="http://www.w3.org/2000/svg" xmlns:xlink="http://www.w3.org/1999/xlink" version="1.1" id="Capa_1" x="0px" y="0px" viewBox="0 0 59.994 59.994" style="enable-background:new 0 0 59.994 59.994;" xml:space="preserve" width="512px" height="512px">
<path d="M59.921,27.926C58.908,13.061,46.934,1.086,32.068,0.072L31,0v28.994h28.994L59.921,27.926z" fill="#FFFFFF"/>
<path d="M51.338,51.091l0.706-0.766c4.618-5.008,7.416-11.494,7.877-18.263l0.073-1.068H31.242L51.338,51.091z" fill="#FFFFFF"/>
<path d="M25,4.483V31.58v1.657l1.172,1.172L43.79,52.026c-4.113,2.576-8.904,3.968-13.79,3.968c-14.336,0-26-11.664-26-26  C4,17.47,12.996,6.829,25,4.483 M29,0l-1.068,0.072C12.269,1.141,0,14.283,0,29.994c0,16.542,13.458,30,30,30  c6.927,0,13.687-2.425,19.037-6.826l0.851-0.7L29,31.58V0L29,0z" fill="#FFFFFF"/>
<g>
</g>
<g>
</g>
<g>
</g>
<g>
</g>
<g>
</g>
<g>
</g>
<g>
</g>
<g>
</g>
<g>
</g>
<g>
</g>
<g>
</g>
<g>
</g>
<g>
</g>
<g>
</g>
<g>
</g>
</svg>
