<?xml version="1.0" encoding="UTF-8" standalone="no"?>
<svg width="37px" height="48px" viewBox="0 0 37 48" version="1.1" xmlns="http://www.w3.org/2000/svg" xmlns:xlink="http://www.w3.org/1999/xlink">
    <!-- Generator: Sketch 50.2 (55047) - http://www.bohemiancoding.com/sketch -->
    <title>ic_step2</title>
    <desc>Created with Sketch.</desc>
    <defs></defs>
    <g id="Design" stroke="none" stroke-width="1" fill="none" fill-rule="evenodd">
        <g id="ic_step2" fill="#337BAE" fill-rule="nonzero">
            <path d="M36.3756522,13.4556522 C36.3758911,13.1826452 36.2691269,12.9204173 36.0782609,12.7252174 L24.1095652,0.52173913 C23.9130922,0.321296352 23.644154,0.20845517 23.3634783,0.208695652 L5.36347826,0.208695652 C2.48199261,0.208695652 0.146086957,2.54460131 0.146086957,5.42608696 L0.146086957,42.5895652 C0.146086957,45.4710509 2.48199261,47.8069565 5.36347826,47.8069565 L31.1582609,47.8069565 C34.0397465,47.8069565 36.3756522,45.4710509 36.3756522,42.5895652 L36.3756522,13.4556522 Z M24.3234783,3.70956522 L33.3443478,12.9130435 L25.8886957,12.9130435 C25.02425,12.9130435 24.3234783,12.2122718 24.3234783,11.3478261 L24.3234783,3.70956522 Z M31.1582609,45.72 L5.36347826,45.72 C3.63458687,45.72 2.23304348,44.3184566 2.23304348,42.5895652 L2.23304348,5.41043478 C2.23304348,3.68154339 3.63458687,2.28 5.36347826,2.28 L22.2365217,2.28 L22.2365217,11.3478261 C22.2365217,13.364866 23.8716557,15 25.8886957,15 L34.2886957,15 L34.2886957,42.5895652 C34.2886957,44.3184566 32.8871523,45.72 31.1582609,45.72 Z" id="Shape"></path>
            <path d="M28.4347826,23.0921739 L14.373913,23.0921739 C13.7976159,23.0921739 13.3304348,23.559355 13.3304348,24.1356522 C13.3304348,24.7119493 13.7976159,25.1791304 14.373913,25.1791304 L28.4347826,25.1791304 C29.0110797,25.1791304 29.4782609,24.7119493 29.4782609,24.1356522 C29.4782609,23.559355 29.0110797,23.0921739 28.4347826,23.0921739 Z" id="Shape"></path>
            <path d="M8.08695652,22.5704348 C7.22251085,22.5704348 6.5217392,23.2712065 6.5217392,24.1356522 C6.5217392,25.0000978 7.22251085,25.7008695 8.08695652,25.7008696 L8.11304348,25.7008696 C8.97748917,25.7008696 9.67826087,25.0000979 9.67826087,24.1356522 C9.67831916,23.7159711 9.50983663,23.3138469 9.21063493,23.0195501 C8.91143324,22.7252534 8.50657934,22.5634401 8.08695652,22.5704348 Z" id="Shape"></path>
            <path d="M28.4347826,29.8747826 L14.373913,29.8747826 C13.7976159,29.8747826 13.3304348,30.3419638 13.3304348,30.9182609 C13.3304348,31.494558 13.7976159,31.9617391 14.373913,31.9617391 L28.4347826,31.9617391 C29.0110797,31.9617391 29.4782609,31.494558 29.4782609,30.9182609 C29.4782609,30.3419637 29.0110797,29.8747826 28.4347826,29.8747826 Z" id="Shape"></path>
            <path d="M8.08695652,29.3530435 C7.22251086,29.3530435 6.52173922,30.0538152 6.52173922,30.9182609 C6.52173922,31.7827065 7.22251086,32.4834782 8.08695652,32.4834783 L8.11304348,32.4834783 C8.97748917,32.4834783 9.67826087,31.7827066 9.67826087,30.9182609 C9.67831916,30.4985798 9.50983663,30.0964556 9.21063493,29.8021588 C8.91143324,29.5078621 8.50657934,29.3460488 8.08695652,29.3530435 Z" id="Shape"></path>
            <path d="M28.4347826,36.6573913 L14.373913,36.6573913 C13.7976159,36.6573913 13.3304348,37.1245724 13.3304348,37.7008696 C13.3304348,38.2771667 13.7976159,38.7443478 14.373913,38.7443478 L28.4347826,38.7443478 C29.0110797,38.7443478 29.4782609,38.2771667 29.4782609,37.7008696 C29.4782609,37.1245724 29.0110797,36.6573913 28.4347826,36.6573913 Z" id="Shape"></path>
            <path d="M8.08695652,36.1356522 C7.22251083,36.1356522 6.52173913,36.8364239 6.52173913,37.7008696 C6.52173913,38.5653153 7.22251083,39.266087 8.08695652,39.266087 L8.11304348,39.266087 C8.97748917,39.266087 9.67826087,38.5653153 9.67826087,37.7008696 C9.67831916,37.2811885 9.50983663,36.8790643 9.21063493,36.5847675 C8.91143324,36.2904708 8.50657934,36.1286575 8.08695652,36.1356522 Z" id="Shape"></path>
        </g>
    </g>
</svg>