<?xml version="1.0" encoding="UTF-8" standalone="no"?>
<svg width="45px" height="52px" viewBox="0 0 45 52" version="1.1" xmlns="http://www.w3.org/2000/svg" xmlns:xlink="http://www.w3.org/1999/xlink">
    <!-- Generator: Sketch 50.2 (55047) - http://www.bohemiancoding.com/sketch -->
    <title>ic_step1</title>
    <desc>Created with Sketch.</desc>
    <defs></defs>
    <g id="Design" stroke="none" stroke-width="1" fill="none" fill-rule="evenodd">
        <g id="ic_step1" fill="#337BAE" fill-rule="nonzero">
            <path d="M1.21875,33.190625 L0,33.271875 L0.08125,34.328125 C0.08125,34.653125 0.1625,34.978125 0.1625,35.303125 C0.24375,36.034375 0.325,36.765625 0.40625,37.415625 C0.975,41.315625 2.35625,44.971875 4.46875,48.303125 C4.7125,48.709375 5.28125,49.034375 5.76875,49.034375 C6.41875,49.034375 6.9875,49.034375 7.55625,49.034375 L7.8,49.034375 C8.775,49.034375 9.425,48.465625 9.66875,47.653125 C10.15625,47.815625 10.5625,47.896875 11.05,48.059375 C11.7,48.221875 12.35,48.465625 13,48.628125 C13.8125,48.871875 14.625,49.115625 15.35625,49.359375 C17.3875,49.928125 19.41875,50.578125 21.45,51.065625 C22.5875,51.390625 23.725,51.471875 24.7,51.471875 C26.325,51.471875 27.7875,51.065625 29.16875,50.334375 L33.88125,47.734375 C37.05,45.946875 40.3,44.240625 43.46875,42.453125 C43.95625,42.209375 44.2,41.803125 44.44375,41.559375 C44.93125,40.909375 45.0125,40.015625 44.6875,39.284375 C44.3625,38.553125 43.7125,38.065625 42.98125,37.984375 C42.16875,37.903125 41.4375,38.065625 40.95,38.228125 C39.325,38.796875 37.78125,39.446875 36.2375,40.096875 C35.425,40.421875 34.53125,40.746875 33.71875,41.153125 C33.23125,41.396875 32.90625,41.965625 33.15,42.453125 C33.39375,42.940625 33.9625,43.265625 34.45,43.021875 C35.34375,42.696875 36.15625,42.371875 36.96875,41.965625 C38.5125,41.315625 40.05625,40.746875 41.6,40.178125 C42.00625,40.015625 42.4125,39.934375 42.65625,40.015625 C42.65625,40.015625 42.7375,40.015625 42.81875,40.096875 C42.81875,40.096875 42.9,40.259375 42.81875,40.340625 C42.7375,40.503125 42.575,40.584375 42.575,40.584375 C39.40625,42.371875 36.15625,44.078125 32.9875,45.865625 L28.275,48.465625 C26.56875,49.440625 24.5375,49.603125 22.01875,48.953125 C19.9875,48.465625 17.95625,47.815625 16.00625,47.246875 C15.19375,47.003125 14.38125,46.759375 13.56875,46.515625 C12.91875,46.353125 12.26875,46.109375 11.61875,45.946875 C10.80625,45.703125 9.9125,45.459375 9.1,45.215625 L7.71875,44.890625 L7.8,46.840625 C7.8,46.840625 7.8,46.840625 7.8,46.921875 C7.8,46.921875 7.8,46.921875 7.8,46.921875 L7.55625,46.921875 C7.06875,46.921875 6.58125,46.921875 6.09375,46.921875 C4.14375,44.078125 2.925,40.746875 2.4375,37.171875 C2.35625,36.521875 2.275,35.871875 2.19375,35.221875 C3.98125,35.140625 5.6875,35.140625 7.475,35.059375 C7.475,35.059375 7.55625,35.059375 7.55625,35.059375 C7.55625,35.059375 7.55625,35.059375 7.55625,35.140625 L7.6375,36.846875 L8.6125,36.846875 C9.2625,36.846875 9.83125,36.846875 10.48125,36.765625 C13.24375,36.684375 15.84375,36.603125 18.3625,37.415625 C19.175,37.659375 19.825,37.984375 20.475,38.390625 C21.45,38.878125 22.425,39.446875 23.8875,39.609375 C25.1875,39.853125 27.7875,40.178125 29.98125,40.096875 C30.30625,40.096875 30.55,40.178125 30.79375,40.421875 C30.95625,40.584375 31.0375,40.828125 31.0375,41.071875 C31.0375,41.640625 30.63125,41.965625 30.14375,42.046875 C29.00625,42.046875 27.86875,42.046875 26.73125,42.046875 L20.71875,42.209375 C20.15,42.209375 19.74375,42.696875 19.74375,43.265625 C19.74375,43.834375 20.23125,44.321875 20.8,44.240625 L26.8125,44.078125 C27.95,44.078125 29.0875,43.996875 30.225,43.996875 C31.85,43.915625 33.06875,42.696875 33.06875,41.071875 C33.06875,40.259375 32.74375,39.446875 32.175,38.959375 C31.60625,38.390625 30.79375,38.065625 29.9,38.065625 C28.4375,38.065625 26.325,37.903125 24.13125,37.578125 C22.99375,37.415625 22.2625,37.009375 21.36875,36.521875 C20.71875,36.196875 19.90625,35.790625 18.93125,35.465625 C16.0875,34.571875 13.1625,34.653125 10.4,34.734375 C10.15625,34.734375 9.83125,34.734375 9.5875,34.734375 C9.425,33.596875 8.6125,32.946875 7.475,33.028125 C5.44375,33.109375 3.49375,33.109375 1.54375,33.190625 C1.4625,33.190625 1.3,33.190625 1.21875,33.190625 Z" id="Shape"></path>
            <path d="M15.275,27.096875 C15.4375,27.746875 15.925,28.315625 16.65625,28.559375 C16.65625,28.559375 17.0625,28.640625 17.63125,28.803125 C18.525,29.046875 20.06875,29.371875 21.53125,29.696875 C21.775,30.590625 22.1,31.484375 22.34375,32.378125 C22.75,33.434375 23.725,34.165625 24.8625,34.165625 L31.0375,34.165625 C32.175,34.165625 33.15,33.434375 33.55625,32.378125 C33.88125,31.484375 34.20625,30.428125 34.45,29.371875 C35.9125,29.046875 37.45625,28.721875 38.35,28.478125 C38.91875,28.396875 39.24375,28.315625 39.24375,28.234375 C39.89375,27.990625 40.38125,27.503125 40.54375,26.771875 C40.70625,26.040625 40.54375,25.390625 39.975,24.903125 L36.2375,20.921875 C36.5625,18.565625 36.725,16.371875 36.725,14.503125 C36.725,11.009375 35.425,7.678125 33.15,4.996875 C33.15,4.996875 33.15,4.996875 33.15,4.996875 L29.4125,0.609375 C28.68125,-0.203125 27.3,-0.203125 26.56875,0.609375 L22.83125,4.996875 C20.55625,7.678125 19.25625,11.090625 19.25625,14.584375 C19.25625,16.534375 19.5,18.809375 19.825,21.246875 L15.925,25.146875 C15.35625,25.634375 15.1125,26.365625 15.275,27.096875 Z M35.83125,23.440625 L38.675,26.284375 C38.5125,26.284375 38.26875,26.365625 37.94375,26.446875 C37.2125,26.609375 36.15625,26.853125 35.01875,27.096875 C35.34375,25.878125 35.66875,24.659375 35.83125,23.440625 Z M24.375,6.378125 L28.03125,2.153125 L31.6875,6.378125 C33.6375,8.653125 34.775,11.578125 34.775,14.665625 C34.775,18.728125 33.6375,26.203125 31.6875,31.646875 C31.60625,31.890625 31.3625,32.053125 31.11875,32.053125 L24.94375,32.053125 C24.7,32.053125 24.45625,31.890625 24.375,31.646875 C22.425,26.203125 21.2875,18.728125 21.2875,14.584375 C21.2875,11.578125 22.34375,8.653125 24.375,6.378125 Z M20.23125,23.684375 C20.475,24.903125 20.71875,26.203125 21.04375,27.421875 C19.90625,27.178125 18.85,26.934375 18.11875,26.771875 C17.7125,26.690625 17.46875,26.609375 17.30625,26.609375 L20.23125,23.684375 Z" id="Shape"></path>
        </g>
    </g>
</svg>