<?xml version="1.0" encoding="UTF-8" standalone="no"?>
<svg width="48px" height="43px" viewBox="0 0 48 43" version="1.1" xmlns="http://www.w3.org/2000/svg" xmlns:xlink="http://www.w3.org/1999/xlink">
    <!-- Generator: Sketch 50.2 (55047) - http://www.bohemiancoding.com/sketch -->
    <title>ic_step3</title>
    <desc>Created with Sketch.</desc>
    <defs></defs>
    <g id="Design" stroke="none" stroke-width="1" fill="none" fill-rule="evenodd">
        <g id="ic_step3" fill="#337BAE" fill-rule="nonzero">
            <path d="M40.2857143,0 L12,0 C8.65714286,0 6,2.65714286 6,6 C2.65714286,6 0,8.65714286 0,12 L0,36.8571429 C0,40.2 2.65714286,42.8571429 6,42.8571429 L36,42.8571429 C39.3428571,42.8571429 42,40.2 42,36.8571429 C45.3428571,36.8571429 48,34.2 48,30.8571429 L48,7.71428571 C48,3.42857143 44.5714286,0 40.2857143,0 Z M6,7.71428571 L36,7.71428571 C38.4,7.71428571 40.2857143,9.6 40.2857143,12 L40.2857143,34.3714286 L34.2,28.2857143 C32.7428571,26.8285714 30.2571429,26.8285714 28.8,28.2857143 L27.0857143,30 L17.1428571,20.0571429 C16.4571429,19.3714286 15.4285714,18.9428571 14.4,18.9428571 C13.3714286,18.9428571 12.4285714,19.3714286 11.6571429,20.0571429 L1.71428571,30.0857143 L1.71428571,12 C1.71428571,9.6 3.6,7.71428571 6,7.71428571 Z M36,41.1428571 L6,41.1428571 C3.6,41.1428571 1.71428571,39.2571429 1.71428571,36.8571429 L1.71428571,32.4857143 L12.9428571,21.2571429 C13.7142857,20.4857143 15.1714286,20.4857143 15.9428571,21.2571429 L29.2285714,34.5428571 C29.4,34.7142857 29.6571429,34.8 29.8285714,34.8 C30,34.8 30.2571429,34.7142857 30.4285714,34.5428571 C30.7714286,34.2 30.7714286,33.6857143 30.4285714,33.3428571 L28.2857143,31.2 L30,29.4857143 C30.8571429,28.6285714 32.1428571,28.6285714 33,29.4857143 L40.3714286,36.8571429 C40.2857143,39.2571429 38.4,41.1428571 36,41.1428571 Z M46.2857143,30.8571429 C46.2857143,33.2571429 44.4,35.1428571 42,35.1428571 L42,12 C42,8.65714286 39.3428571,6 36,6 L7.71428571,6 C7.71428571,3.6 9.6,1.71428571 12,1.71428571 L40.2857143,1.71428571 C43.6285714,1.71428571 46.2857143,4.37142857 46.2857143,7.71428571 L46.2857143,30.8571429 Z" id="Shape"></path>
            <path d="M31.8,22.1142857 C34.1142857,22.1142857 36,20.2285714 36,17.9142857 C36,15.6 34.1142857,13.7142857 31.8,13.7142857 C29.4857143,13.7142857 27.6,15.6 27.6,17.9142857 C27.6,20.2285714 29.4857143,22.1142857 31.8,22.1142857 Z M31.8,15.4285714 C33.1714286,15.4285714 34.2857143,16.5428571 34.2857143,17.9142857 C34.2857143,19.2857143 33.1714286,20.4 31.8,20.4 C30.4285714,20.4 29.3142857,19.2857143 29.3142857,17.9142857 C29.3142857,16.5428571 30.4285714,15.4285714 31.8,15.4285714 Z" id="Shape"></path>
        </g>
    </g>
</svg>