<?xml version="1.0" encoding="UTF-8" standalone="no"?>
<svg width="48px" height="45px" viewBox="0 0 48 45" version="1.1" xmlns="http://www.w3.org/2000/svg" xmlns:xlink="http://www.w3.org/1999/xlink">
    <!-- Generator: Sketch 50.2 (55047) - http://www.bohemiancoding.com/sketch -->
    <title>ic_vente</title>
    <desc>Created with Sketch.</desc>
    <defs></defs>
    <g id="Design" stroke="none" stroke-width="1" fill="none" fill-rule="evenodd">
        <path d="M37.7679548,7.68427274 L35.4392785,7.68427274 L34.3363394,4.70240964 C33.9791599,3.73581693 33.2653614,2.9663399 32.326153,2.53469567 C31.3875053,2.10305145 30.3361525,2.06117135 29.3655437,2.41743139 L15.0049063,7.68483114 L9.07583758,7.68483114 C9.4369422,7.4570034 9.82496145,7.26547174 10.2292416,7.11749539 L28.6108126,0.37479933 C30.1292463,-0.181926796 31.7738423,-0.11659384 33.2423719,0.558513368 C34.7109014,1.23362058 35.8278585,2.43809224 36.3868978,3.95024304 L37.7679548,7.68427274 Z M34.5325919,33.5175935 C30.6905285,33.5175935 27.5476847,30.3871956 27.5476847,26.5615881 C27.5476847,22.7354222 30.6910892,19.6055827 34.5325919,19.6055827 L44.7029578,19.6055827 L44.7029578,18.1615569 C44.7029578,13.6161701 40.9685529,9.89721721 36.4042802,9.89721721 L8.29867763,9.89721721 C3.73440493,9.89721721 0,13.6161701 0,18.1615569 L0,36.7356603 C0,41.2810471 3.73440493,45 8.29867763,45 L36.4048409,45 C40.9691136,45 44.7035185,41.2810471 44.7035185,36.7356603 L44.7035185,33.5175935 L34.5325919,33.5175935 Z M48,24.0739102 L48,29.049266 C48,30.294501 46.9862156,31.3040906 45.7358067,31.3040906 L40.591748,31.3040906 L36.9386477,31.3040906 L34.3116677,31.3040906 L34.3116677,31.2890137 C31.8512219,31.1041829 29.9116864,29.0587588 29.9116864,26.5610297 C29.9116864,24.0633005 31.8512219,22.0178765 34.3116677,21.8330456 L34.3116677,21.8185272 L36.9386477,21.8185272 L40.591748,21.8185272 L45.7358067,21.8185272 C46.9862156,21.8185272 48,22.8281168 48,24.0739102 Z M37.3294706,26.5615881 C37.3294706,25.1008102 36.1401804,23.9169994 34.6738937,23.9169994 C33.2070464,23.9169994 32.0183169,25.1013686 32.0183169,26.5615881 C32.0183169,28.022366 33.2076071,29.2061768 34.6738937,29.2061768 C36.1407411,29.2061768 37.3294706,28.022366 37.3294706,26.5615881 Z" id="ic_vente" fill="#FFFFFF" fill-rule="nonzero"></path>
    </g>
</svg>