<?xml version="1.0" encoding="iso-8859-1"?>
<!-- Generator: Adobe Illustrator 18.0.0, SVG Export Plug-In . SVG Version: 6.00 Build 0)  -->
<!DOCTYPE svg PUBLIC "-//W3C//DTD SVG 1.1//EN" "http://www.w3.org/Graphics/SVG/1.1/DTD/svg11.dtd">
<svg xmlns="http://www.w3.org/2000/svg" xmlns:xlink="http://www.w3.org/1999/xlink" version="1.1" id="Capa_1" x="0px" y="0px" viewBox="0 0 196.492 196.492" style="enable-background:new 0 0 196.492 196.492;" xml:space="preserve" width="20px" height="20px">
<path d="M37.096,68.389l-26.86-13.361c7.732-15.544,19.496-28.818,34.02-38.387L60.76,41.691  C50.655,48.35,42.472,57.581,37.096,68.389z M0,98.733c0.001,14.623,3.141,28.701,9.335,41.842l27.137-12.789  C32.178,118.675,30,108.899,30,98.732c0-2.02,0.089-4.055,0.264-6.049L0.379,90.061C0.127,92.923,0,95.841,0,98.733z   M190.513,64.916c-5.97-16.284-16.215-30.765-29.629-41.875l-19.137,23.104c9.331,7.729,16.454,17.791,20.599,29.098L190.513,64.916  z M166.492,98.732c0,12.116-3.211,24.012-9.288,34.399l25.897,15.146c8.76-14.98,13.391-32.112,13.391-49.546H166.492z   M98.246,30.486c7.328,0,14.531,1.151,21.409,3.422l9.404-28.488c-9.917-3.273-20.284-4.934-30.813-4.934  c-6.872,0-13.74,0.716-20.412,2.126l6.206,29.351C88.676,30.983,93.456,30.486,98.246,30.486z M82.643,165.19  c-11.719-2.738-22.56-8.593-31.35-16.931l-20.646,21.766c12.65,12,28.27,20.43,45.17,24.378L82.643,165.19z M140.628,152.228  c-9.475,7.519-20.788,12.386-32.717,14.075l4.206,29.703c17.204-2.436,33.512-9.448,47.16-20.278L140.628,152.228z" fill="#373e40"/>
<g>
</g>
<g>
</g>
<g>
</g>
<g>
</g>
<g>
</g>
<g>
</g>
<g>
</g>
<g>
</g>
<g>
</g>
<g>
</g>
<g>
</g>
<g>
</g>
<g>
</g>
<g>
</g>
<g>
</g>
</svg>
