<?xml version="1.0" encoding="UTF-8" standalone="no"?>
<svg width="32px" height="32px" viewBox="0 0 134 134" version="1.1" xmlns="http://www.w3.org/2000/svg" xmlns:xlink="http://www.w3.org/1999/xlink">
    <!-- Generator: Sketch 50.2 (55047) - http://www.bohemiancoding.com/sketch -->
    <title>Coin3b</title>
    <desc>Created with Sketch.</desc>
    <defs></defs>
    <g id="Design" stroke="none" stroke-width="1" fill="none" fill-rule="evenodd">
        <g id="Coin3b" transform="translate(7.000000, 7.000000)">
            <g id="Group" stroke="#696F70" stroke-linecap="round" stroke-linejoin="round">
                <circle id="Oval" stroke-width="13.3333333" cx="60" cy="60" r="60"></circle>
                <circle id="Oval" stroke-width="6.66666667" cx="60.0281763" cy="60.0281763" r="40.0281763"></circle>
            </g>
            <g id="Group-6" transform="translate(34.000000, 37.000000)" fill="#696F70">
                <path d="M24.195149,31.1637631 L21.431558,31.1637631 L21.431558,21.5749129 L11.9064212,21.5749129 L11.9064212,31.1637631 L2.38128435,31.1637631 L2.38128435,16.7804878 C1.06595027,16.7804878 1.48830265e-08,15.7072151 0,14.3832753 L16.6689895,0 L23.8128423,6.16426088 L23.8128423,2.39721254 L28.5754107,2.39721254 L28.5754107,10.2737681 L33.3379791,14.3832753 C33.3379791,15.7072192 32.271201,16.7804878 30.9571126,16.7804878 L30.9569503,22.3686599 C30.1841266,22.6168794 29.5472763,22.9223115 29.1090807,23.2849562 C28.3109415,25.4239691 27.5447279,27.562982 26.7465888,29.7019949 C26.2677053,29.7019949 25.7888218,29.7019949 25.3418639,29.7019949 C24.8910719,29.8462484 24.3995425,30.5099041 24.195149,31.1637631 Z" id="Combined-Shape"></path>
                <path d="M26.8336355,34.76943 L27.1209656,33.7158863 C26.6420821,33.7158863 26.1312731,33.6839607 25.6523896,33.6839607 C24.886176,33.1093005 25.8120174,31.2256922 26.6101566,30.9702876 C27.0571145,30.9702876 27.535998,30.9702876 28.0148815,30.9702876 C28.8130206,28.8312747 29.5792342,26.6922618 30.3773733,24.5532489 C33.1548976,22.2546081 43.9138133,22.2546081 46.6913376,24.5532489 C47.4894767,26.6922618 48.2556903,28.8312747 49.0538295,30.9702876 C49.5327129,30.9702876 49.9796709,30.9702876 50.4585544,30.9702876 C51.2566935,31.2256922 52.1825349,33.1093005 51.4163213,33.6839607 C50.9374379,33.6839607 50.4266288,33.7158863 49.9477453,33.7158863 L50.2350754,34.76943 C50.267001,37.5788798 50.2350754,40.4202552 50.2350754,43.1977794 C50.2350754,43.7724396 49.7561919,44.2513231 49.2134573,44.2513231 L45.7335706,44.2513231 C45.190836,44.2513231 44.7119525,43.7724396 44.7119525,43.1977794 L44.7119525,41.9207568 C40.5935545,41.9207568 36.4751564,41.9207568 32.3567584,41.9207568 L32.3567584,43.1977794 C32.3567584,43.7724396 31.8778749,44.2513231 31.3351403,44.2513231 L27.8552536,44.2513231 C27.312519,44.2513231 26.8336355,43.7724396 26.8336355,43.1977794 C26.8336355,40.4202552 26.8017099,37.5788798 26.8336355,34.76943 Z M31.5586193,26.3730061 C31.0158847,28.00121 30.5370012,29.5974883 29.9942665,31.2256922 L47.0744444,31.2256922 C46.5317097,29.5974883 46.0528263,28.00121 45.5100916,26.3730061 C44.3607713,24.1382165 32.7079397,24.1382165 31.5586193,26.3730061 Z M48.7345738,36.8126662 C48.7026482,36.2060805 48.7345738,35.8229737 48.7026482,35.2163879 C48.5430204,34.6417277 47.8406579,34.5140255 47.0744444,34.6736533 C45.9570496,35.0248345 44.6800269,35.5356436 43.4668554,36.1422293 C42.9560463,36.5572617 42.8602697,37.0999963 43.4668554,37.5469542 C45.925124,37.930061 48.1599136,37.7704332 48.7345738,36.8126662 Z M28.3341371,36.8126662 C28.3660627,36.2060805 28.3341371,35.8229737 28.3660627,35.2163879 C28.5256905,34.6417277 29.228053,34.5140255 29.9942665,34.6736533 C31.1116614,35.0248345 32.388684,35.5356436 33.6018555,36.1422293 C34.1126646,36.5572617 34.2084413,37.0999963 33.6018555,37.5469542 C31.1435869,37.930061 28.9087973,37.7704332 28.3341371,36.8126662 Z" id="Shape"></path>
            </g>
        </g>
    </g>
</svg>